<?xml version="1.0" encoding="utf-8"?>
<!-- Generator: Adobe Illustrator 19.0.0, SVG Export Plug-In . SVG Version: 6.00 Build 0)  -->
<svg version="1.1" id="Layer_1" xmlns="http://www.w3.org/2000/svg" xmlns:xlink="http://www.w3.org/1999/xlink" x="0px" y="0px"
	 viewBox="0 0 489.6 501.3" style="enable-background:new 0 0 489.6 501.3;" xml:space="preserve">
<g id="XMLID_4_">
	<path id="XMLID_20_" d="M164.5,246.1c-7.8,4.7-23.6,3.5-28.5,2.7c-1.8-0.3-3.6-0.1-5.2,0.5l-29.5,10.9c-1.1,0.4-2,0.7-2.8,0.9
		l1.8-40.1c3.2-14.4,1.5-25.8-5.1-33.8c-7.5-9.2-18.3-10.1-19.5-10.1c-11.5-0.7-21.6,9.7-32.5,33.9C45.8,166.4,67.8,64.5,80.5,11
		c1.2-4.9-2.1-9.7-7.4-10.8c-5.2-1.1-10.4,2-11.5,6.9C59.9,14.3,19.8,183.7,24,226.6c-0.2,3.7-1.1,22.5-2.4,47.3
		c-0.2,0.6-0.3,1-0.3,1.1c-0.4,1.4-0.3,2.9,0,4.2c-2.8,53.5-7.2,130.3-9.9,148c0,0.2,0,0.4-0.1,0.5c-1.6,17.6-5.7,39.5-9.4,44
		c-3.2,4-2.4,9.7,1.9,12.7c1.7,1.2,3.8,1.8,5.8,1.8c2.9,0,5.8-1.2,7.7-3.6c8.8-10.8,12.3-43.1,13.2-53.2
		c2.9-19.5,7.4-99.5,10.2-153.1C51.5,237,67.1,200,75.1,195.2c1,0.3,3.1,1,4.6,2.9c3,3.7,3.5,10.7,1.4,19.8c-0.1,0.5-0.2,1-0.2,1.5
		l-2.1,45.1c-0.4,3.6,0.8,8.7,5.4,12.1c8.2,6.1,20.2,1.7,24.1,0.3l27.1-10c7.5,0.9,27.2,2.2,40.3-6.2c0.2-0.2,0.5-0.3,0.7-0.5
		c0.6-0.4,5.1-3.3,6.9-1.9c4.1,3.2,10.2,2.7,13.6-1.1c3.4-3.8,2.9-9.5-1.2-12.7C185.9,236.9,172.8,239.9,164.5,246.1z"/>
	<path id="XMLID_24_" d="M481.6,164.8c-5.2-0.9-10.3,2.4-11.2,7.3c-1.9,9.8-15.1,18.8-20,21.4c-1.8,0.9-3.2,2.4-4.1,4.1
		c-0.3,0.6-0.5,0.7-0.9,0.8c-5.2,1.4-18.2-3.8-25.5-8.2c-4.5-2.7-10.4-1.5-13.3,2.6c-6.9,9.7-23.6,16.2-29.4,17.9
		c-0.2,0.1-0.5,0.2-0.7,0.2c-4.1,1.5-12.9-1.1-17.7-3.4c-10.9-6.5-23.7-3-32,1.4c1.6-42.6,2.4-100.1,2.7-116.3
		c-0.2-28.8,23.2-62.8,23.6-63.4c2.9-4.2,1.7-9.8-2.8-12.5c-4.5-2.7-10.5-1.5-13.4,2.6c-1.1,1.6-27,39-26.7,73.3
		c-0.6,41.8-1.9,103.7-3.5,136.9c-11.7,17.2-21,38.8-22.8,43.2c-23.8,45.4-27.4,137.2-27.6,143.6c-4.7,53.8,3.5,71.5,7,76.5
		c4.1,7,9.5,8.4,13.1,8.4c0.7,0,1.3,0,1.8-0.1c4.4-0.6,15.9-2.1,26-47.3c16-43.8,19.4-185.3,19.7-198.5c0.6-3.5,1.2-10.5,1.8-19.9
		c2.8-3.8,5.7-7.1,8.4-9.3c2-1.3,10.3-5.9,14.6-3.2c0.3,0.2,0.6,0.3,0.8,0.5c3.3,1.6,20.1,9.4,33.9,4.6c2.9-0.9,21.2-6.7,33.6-18.4
		c8.7,4.2,22.8,9.4,33.9,6.3c4.9-1.3,8.8-4,11.5-7.9c6.7-4,24-15.7,27.2-32.7C490.4,170.4,486.9,165.7,481.6,164.8z M285.6,448.4
		c-0.1,0.4-0.3,0.8-0.3,1.2c-2.2,10-5.4,20.2-8.2,27c-2.1-8.3-4.5-25.7-1.6-59c0-0.2,0-0.3,0-0.5c0-0.9,3.4-94.3,25.8-136.8
		c0.1-0.2,0.2-0.5,0.3-0.7c0.6-1.4,1.3-3.2,2.2-5.1C302.3,317.5,297.7,416.1,285.6,448.4z"/>
	<path id="XMLID_25_" d="M406.2,120.8c2.5,0,5-0.9,6.9-2.7c2-1.9,4.7-4,6.7-5.2c2.6,0.8,5.5,0.6,8-0.8c4.6-2.5,6.2-8.1,3.5-12.4
		c-2-3.1-5.3-5.2-9.2-5.7c-8-0.9-16.8,5.6-22.8,11.3c-3.8,3.6-3.7,9.3,0.1,12.8C401.2,119.9,403.7,120.8,406.2,120.8z"/>
</g>
<g id="XMLID_59_">
</g>
<g id="XMLID_60_">
</g>
<g id="XMLID_61_">
</g>
<g id="XMLID_62_">
</g>
<g id="XMLID_63_">
</g>
<g id="XMLID_64_">
</g>
</svg>
